<?xml version="1.0" standalone="no"?>
<!DOCTYPE svg PUBLIC "-//W3C//DTD SVG 20010904//EN"
 "http://www.w3.org/TR/2001/REC-SVG-20010904/DTD/svg10.dtd">
<svg version="1.0" xmlns="http://www.w3.org/2000/svg"
 width="500.000000pt" height="500.000000pt" viewBox="0 0 500.000000 500.000000"
 preserveAspectRatio="xMidYMid meet">
<metadata>
Created by potrace 1.11, written by Peter Selinger 2001-2013
</metadata>
<g transform="translate(0.000000,500.000000) scale(0.100000,-0.100000)"
fill="#000000" stroke="none">
<path d="M1743 4539 c-66 -25 -150 -102 -185 -166 -14 -26 -32 -74 -39 -106
-12 -56 -13 -58 -38 -50 -14 4 -53 8 -87 8 -95 -1 -184 -64 -214 -152 -10 -29
-15 -31 -73 -35 -116 -10 -215 -80 -266 -188 -36 -75 -37 -192 -2 -262 35 -71
95 -133 159 -165 l57 -28 275 -3 275 -3 0 -102 c0 -56 2 -137 5 -180 l5 -78
-77 -34 c-216 -94 -382 -233 -454 -379 -38 -78 -39 -83 -39 -185 0 -102 1
-109 38 -186 71 -147 255 -299 469 -387 l78 -32 -7 -65 c-14 -117 -9 -310 10
-391 34 -148 111 -265 213 -325 94 -55 233 -66 364 -29 82 24 234 105 333 180
l87 66 48 -40 c200 -167 432 -253 603 -222 218 39 345 221 365 522 l7 97 61 3
c58 3 61 4 61 28 l0 25 -305 5 c-298 5 -306 6 -343 28 -98 61 -117 203 -39
285 40 43 80 60 142 61 67 1 76 7 84 49 9 51 55 89 113 94 40 4 55 0 88 -22
54 -37 70 -26 71 51 3 131 97 224 226 224 100 -1 185 -64 219 -162 25 -74 36
-78 93 -35 84 64 174 72 253 21 53 -35 82 -81 90 -141 l6 -51 -36 -11 c-41
-14 -97 -72 -97 -101 0 -30 16 -24 39 15 29 50 79 72 130 56 112 -33 169 -154
122 -256 -42 -92 -96 -115 -270 -115 -114 0 -131 -2 -139 -17 -20 -39 -6 -43
146 -43 133 0 152 2 197 24 54 25 100 71 122 123 21 52 17 150 -11 209 -24 52
-94 121 -133 130 -18 5 -23 13 -23 38 -1 113 -132 236 -252 236 l-48 0 0 53
c0 221 -167 416 -483 562 l-108 50 8 80 c12 118 7 280 -11 365 -43 204 -166
343 -334 379 -82 17 -160 10 -278 -24 -18 -6 -26 2 -52 48 -34 60 -76 99 -138
130 -39 18 -42 23 -47 69 -14 111 -88 213 -195 265 -100 49 -261 33 -334 -34
-10 -9 -19 -14 -21 -12 -1 2 -17 34 -36 71 -61 123 -157 181 -306 185 -72 2
-101 -1 -142 -18z m263 -78 c86 -38 143 -109 169 -210 17 -70 34 -73 95 -18
172 155 429 52 448 -179 l4 -61 -41 -6 c-59 -8 -119 -50 -141 -100 -18 -39
-18 -57 -1 -57 4 0 13 16 20 35 7 19 28 47 48 62 66 51 179 42 253 -19 26 -21
70 -84 70 -99 0 -8 -28 -29 -63 -46 -34 -18 -101 -62 -149 -99 l-88 -65 -87
66 c-49 36 -137 90 -198 120 -197 98 -347 108 -487 33 -110 -59 -209 -199
-233 -332 l-8 -38 -276 4 c-305 4 -324 8 -389 71 -57 54 -77 102 -77 187 0 64
4 82 27 122 54 90 161 147 253 135 49 -7 56 -2 73 59 7 23 22 54 34 69 25 32
91 64 131 65 35 0 95 -25 123 -51 12 -12 30 -19 41 -17 15 3 19 16 24 93 6 95
24 143 74 203 79 94 231 126 351 73z m223 -952 l106 -54 -179 -5 c-159 -4
-180 -7 -190 -23 -9 -15 -7 -21 8 -33 16 -11 62 -14 223 -14 112 0 203 -2 203
-5 0 -3 -24 -34 -52 -68 -29 -34 -66 -78 -83 -98 -29 -36 -32 -37 -165 -58
-74 -12 -147 -24 -161 -27 -25 -5 -26 -3 -33 42 -16 122 0 270 36 336 48 86
128 88 287 7z m1045 31 c19 -18 42 -51 51 -78 20 -56 31 -206 20 -287 -6 -52
-8 -56 -28 -51 -12 3 -84 16 -161 28 l-138 23 -31 40 c-17 22 -57 70 -89 107
l-59 67 63 47 c75 55 143 91 218 115 82 27 113 24 154 -11z m-437 -656 c25 -5
41 -24 93 -107 35 -56 92 -157 128 -224 l63 -123 -63 -122 c-90 -173 -187
-325 -212 -332 -27 -7 -415 -7 -441 0 -29 7 -140 185 -234 372 l-41 82 40 79
c96 193 210 368 242 374 36 7 392 8 425 1z m-833 -69 c-4 -8 -10 -15 -15 -15
-5 0 -9 7 -9 15 0 8 7 15 15 15 9 0 12 -6 9 -15z m1266 -1 c0 -8 -4 -12 -10
-9 -5 3 -10 10 -10 16 0 5 5 9 10 9 6 0 10 -7 10 -16z m447 -150 c57 -31 173
-127 173 -143 0 -3 -35 -6 -78 -7 -92 -1 -135 -18 -199 -76 -50 -47 -78 -94
-88 -152 l-8 -38 -34 88 c-29 74 -33 94 -25 119 6 17 29 82 52 145 22 63 43
121 45 127 5 15 64 -8 162 -63z m-2008 24 c7 -24 33 -94 57 -155 41 -105 44
-115 31 -140 -8 -16 -33 -82 -56 -148 -23 -66 -44 -121 -46 -123 -2 -2 -45 17
-96 42 -288 143 -339 295 -148 441 58 44 206 124 230 125 10 0 20 -15 28 -42z
m291 -638 c9 -16 8 -20 -5 -20 -8 0 -15 9 -15 20 0 11 2 20 5 20 2 0 9 -9 15
-20z m76 -340 c64 -11 126 -20 137 -20 32 0 204 -215 188 -234 -21 -24 -148
-106 -217 -138 -52 -24 -81 -31 -131 -32 -61 -1 -66 1 -93 31 -44 49 -63 127
-62 264 0 143 5 163 38 155 13 -4 76 -15 140 -26z m993 -34 c27 -33 87 -50
186 -56 l100 -5 -2 -85 c-5 -159 -56 -250 -142 -250 -48 0 -138 31 -210 71
-70 40 -163 108 -159 117 2 4 43 55 92 115 88 105 112 122 135 93z"/>
<path d="M1709 4050 c-48 -25 -86 -72 -99 -121 -9 -34 -13 -38 -30 -29 -51 27
-140 0 -176 -55 -13 -20 -25 -25 -55 -25 -55 0 -99 -21 -137 -64 -34 -38 -48
-76 -38 -101 9 -24 23 -17 29 15 15 74 70 114 155 112 47 -1 54 1 62 22 23 62
120 88 173 46 34 -27 37 -26 37 18 0 21 10 58 23 82 26 52 88 90 149 90 27 0
38 4 38 15 0 22 -86 19 -131 -5z"/>
<path d="M2535 2777 c-106 -36 -182 -100 -232 -197 -25 -49 -28 -65 -28 -150
1 -112 19 -163 87 -236 55 -59 101 -88 174 -110 159 -46 339 36 414 190 113
231 -44 497 -303 512 -44 2 -87 -1 -112 -9z"/>
<path d="M3834 1655 c-10 -26 4 -45 34 -45 37 0 54 17 41 42 -12 22 -67 25
-75 3z"/>
<path d="M3961 1657 c-6 -8 -8 -22 -5 -31 5 -14 18 -16 63 -14 52 3 56 5 56
28 0 23 -4 25 -51 28 -35 2 -55 -2 -63 -11z"/>
</g>
</svg>
